<?xml version="1.0" encoding="UTF-8"?>
<svg id="Layer_2" data-name="Layer 2" xmlns="http://www.w3.org/2000/svg" viewBox="0 0 272.72 298.11">
  <defs>
    <style>
      .cls-1 {
        fill: #e4b6ff;
      }
    </style>
  </defs>
  <g id="Layer_1-2" data-name="Layer 1">
    <path class="cls-1" d="M272.72,149.06c-84.64,0-136.36,56.54-136.36,149.06,0-92.52-51.72-149.06-136.36-149.06,84.64,0,136.36-56.54,136.36-149.06,0,92.52,51.72,149.06,136.36,149.06Z"/>
    <path d="M143.38,136.9c44.46-77.01-58.51-77.01-14.04,0-44.46-77.01-95.95,12.16-7.02,12.16-88.93,0-37.44,89.17,7.02,12.16-44.46,77.01,58.51,77.01,14.04,0,44.46,77.01,95.95-12.16,7.02-12.16,88.93,0,37.44-89.17-7.02-12.16Z"/>
  </g>
</svg>