<svg width="2413" height="1322" viewBox="0 0 2413 1322" fill="none" xmlns="http://www.w3.org/2000/svg">
<path d="M151.133 650.09C292.211 647.935 443.49 653.825 583.132 646.642C780.527 636.586 1007.09 552.829 994.3 316.788C982.519 96.9818 748.49 6.04221 557.272 6.4732L6.46265 9.77749V649.946C54.5902 649.228 103.005 650.808 151.133 649.946V650.09ZM256.726 183.324C352.407 187.347 452.397 178.009 547.647 183.324C629.535 187.778 731.968 210.764 752.943 302.997C785.699 447.523 620.916 468.355 518.339 472.808C432.14 476.543 343.069 469.791 256.582 472.808V183.324H256.726Z" fill="white"/>
<path d="M2365.3 789.417H2100.52C2037.88 859.382 1974.24 928.197 1906.29 992.846V629.375H1720.1V1302.87H1906.29V1154.33L2002.69 1104.19L2161.44 1303.02H2397.33L2150.23 1004.34L2365.15 789.561L2365.3 789.417Z" fill="white"/>
<path d="M1310.8 0H1083.38V641.893H1310.8V0Z" fill="white"/>
<path d="M2165.89 648.354H2412.27L2243.18 442.626C2296.62 421.795 2347.62 397.659 2377.07 345.94C2414.57 279.998 2409.11 183.025 2369.31 119.238C2314 30.0221 2201.95 13.788 2104.97 9.90905C1951.54 3.73148 1596.4 3.87515 1442.97 9.90905C1431.33 10.34 1425.15 11.633 1425.15 11.633V1309.64H1438.23H1630.45V481.56H2029.12L2165.89 648.498V648.354ZM1630.3 179.72H2078.83C2086.58 179.72 2111.58 186.616 2119.77 190.064C2174.94 213.051 2168.18 285.027 2114.6 305.427C2109.57 307.295 2085.29 314.478 2081.84 314.478H1630.02V179.72H1630.3Z" fill="white"/>
<path d="M1183.08 831.536C1170.29 816.021 1155.35 801.367 1138.54 788.006C1120.87 773.927 1100.33 761.572 1077.63 751.372C1055.36 741.315 1030.07 733.413 1002.63 727.811C975.338 722.208 944.738 719.334 911.695 719.334C874.342 719.334 838.713 723.213 805.67 730.828C772.915 738.442 742.027 749.073 713.725 762.434C685.423 775.938 659.133 792.029 635.715 810.418C612.585 828.663 591.898 848.632 573.94 869.751C555.982 891.013 540.609 913.569 528.111 936.842C515.612 960.26 505.843 984.108 499.234 1007.67L497.654 1013.56C488.028 1050.34 485.299 1086.68 489.609 1121.31C491.333 1135.67 494.493 1149.61 498.803 1162.97C438.177 1196.59 325.113 1222.45 301.552 1127.05C297.242 1109.67 295.805 936.986 295.805 936.986H506.848V789.299H295.087V693.475H109.185V789.299H0V936.986H109.185C109.185 980.66 109.185 1012.55 109.185 1057.38C109.185 1106.51 105.737 1159.24 123.839 1205.78C177.282 1343.27 418.351 1345.28 586.151 1278.91C585.72 1279.05 594.484 1282.79 598.794 1285.52C603.535 1288.53 608.419 1291.41 613.447 1293.99C628.532 1301.89 643.904 1307.93 658.989 1311.95C673.068 1315.69 686.573 1318.27 699.359 1319.85C711.714 1321.29 723.351 1322.01 733.695 1322.01H755.675C832.536 1322.01 907.098 1299.6 977.349 1255.35C1016.71 1230.49 1054.78 1198.74 1090.99 1160.38C1088.69 1174.75 1085.67 1189.26 1082.08 1203.63L1055.5 1309.08H1230.06L1387.37 686.866H1215.55L1183.08 831.105V831.536ZM1043.87 988.705C1022.03 1018.73 999.33 1044.88 976.057 1066.43C953.07 1087.83 929.797 1105.65 906.81 1119.3C884.399 1132.66 861.843 1142.57 840.006 1148.89C818.457 1155.07 797.482 1158.23 777.512 1158.23C760.56 1158.23 745.762 1156.36 733.695 1152.48C722.058 1148.89 712.289 1144.15 704.531 1138.26C697.204 1132.66 691.457 1126.48 687.004 1119.3C682.119 1111.25 678.527 1102.77 676.229 1093.72C673.93 1084.39 672.924 1074.62 673.212 1064.99C673.643 1054.36 675.079 1044.02 677.809 1033.67L678.24 1032.24C681.688 1019.88 686.429 1007.24 692.319 995.027C698.066 982.959 705.249 971.322 713.581 960.26C721.627 949.485 731.396 939.428 742.314 930.234C753.089 921.183 765.732 913.281 779.811 906.529C794.177 899.633 810.699 894.03 829.088 890.008C847.477 885.985 868.308 883.83 891.007 883.83C917.154 883.83 940.284 886.272 959.679 891.157C978.786 896.042 995.595 902.363 1009.39 910.121C1022.75 917.591 1033.95 926.211 1042.86 935.693C1050.76 944.169 1057.66 952.933 1063.55 961.84L1044.01 988.705H1043.87Z" fill="white"/>
</svg>
