<svg width="1478" height="460" viewBox="0 0 1478 460" fill="none" xmlns="http://www.w3.org/2000/svg">
<g clip-path="url(#clip0_71_2371)">
<rect width="278.83" height="304.789" fill="#E4B6FF"/>
<path d="M278.83 152.399C192.294 152.399 139.415 210.206 139.415 304.799C139.415 210.206 86.5362 152.399 0 152.399C86.5362 152.399 139.415 94.5927 139.415 0C139.415 94.5927 192.294 152.399 278.83 152.399Z" fill="#E4B6FF"/>
</g>
<path d="M147.62 137.401C201.914 42.8076 76.1678 42.8076 130.474 137.401C76.1801 42.8076 13.3011 152.338 121.901 152.338C13.3011 152.338 76.1801 261.868 130.474 167.274C76.1801 261.868 201.926 261.868 147.62 167.274C201.914 261.868 264.793 152.338 156.192 152.338C264.793 152.338 201.914 42.8076 147.62 137.401Z" fill="black"/>
<path d="M336.03 392H300.66V197.6H336.3V298.31H327.93C329.19 289.49 332.16 281.57 336.84 274.55C341.7 267.53 348 262.04 355.74 258.08C363.66 253.94 372.66 251.87 382.74 251.87C395.16 251.87 406.5 254.93 416.76 261.05C427.02 267.17 435.12 275.63 441.06 286.43C447.18 297.23 450.24 309.83 450.24 324.23C450.24 338.45 447.18 350.96 441.06 361.76C434.94 372.56 426.75 381.02 416.49 387.14C406.23 393.26 394.71 396.32 381.93 396.32C370.23 396.32 360.15 393.8 351.69 388.76C343.23 383.72 336.84 376.97 332.52 368.51C328.2 359.87 326.31 350.42 326.85 340.16L334.41 335.3C335.31 341.42 337.56 346.91 341.16 351.77C344.76 356.45 349.35 360.14 354.93 362.84C360.69 365.36 366.9 366.62 373.56 366.62C381.48 366.62 388.41 364.82 394.35 361.22C400.29 357.62 404.88 352.58 408.12 346.1C411.54 339.62 413.25 332.33 413.25 324.23C413.25 315.77 411.63 308.39 408.39 302.09C405.33 295.61 401.01 290.57 395.43 286.97C389.85 283.37 383.1 281.57 375.18 281.57C367.62 281.57 360.87 283.37 354.93 286.97C349.17 290.57 344.58 295.61 341.16 302.09C337.92 308.39 336.3 316.04 336.3 325.04V357.98L336.03 359.87V392ZM571.238 256.19H607.148L542.618 407.66C537.398 419.72 530.828 428.81 522.908 434.93C514.988 441.23 504.458 444.38 491.318 444.38H473.768V415.22H489.428C494.828 415.22 499.328 413.96 502.928 411.44C506.708 409.1 509.678 405.32 511.838 400.1L514.808 392.27L456.758 256.19H493.748L538.028 372.02H526.418L571.238 256.19ZM845.239 392H809.599V312.62C809.599 302.18 807.439 294.44 803.119 289.4C798.799 284.18 792.949 281.57 785.569 281.57C780.169 281.57 775.039 283.1 770.179 286.16C765.499 289.04 761.629 293.72 758.569 300.2C755.689 306.5 754.249 314.78 754.249 325.04V392H718.609V312.62C718.609 302.18 716.449 294.44 712.129 289.4C707.809 284.18 701.869 281.57 694.309 281.57C688.909 281.57 683.779 283.1 678.919 286.16C674.239 289.04 670.369 293.72 667.309 300.2C664.429 306.5 662.989 314.78 662.989 325.04V392H627.349V256.19H662.719V285.89L660.829 285.62C663.349 276.8 666.949 270.05 671.629 265.37C676.489 260.51 681.799 257.09 687.559 255.11C693.499 252.95 699.349 251.87 705.109 251.87C716.449 251.87 725.899 254.93 733.459 261.05C741.199 267.17 746.329 276.26 748.849 288.32L745.339 288.59C748.039 279.23 751.999 271.94 757.219 266.72C762.619 261.32 768.649 257.54 775.309 255.38C781.969 253.04 788.539 251.87 795.019 251.87C810.859 251.87 823.189 256.82 832.009 266.72C840.829 276.62 845.239 291.02 845.239 309.92V392ZM1000.75 392H968.351V364.73L966.731 360.41V309.38C966.731 299.84 963.671 292.46 957.551 287.24C951.431 282.02 943.061 279.41 932.441 279.41C924.701 279.41 917.411 280.94 910.571 284C903.911 286.88 898.061 291.02 893.021 296.42L874.391 274.82C881.591 267.62 890.321 262.04 900.581 258.08C910.841 253.94 922.001 251.87 934.061 251.87C947.201 251.87 958.811 254.12 968.891 258.62C978.971 263.12 986.801 269.6 992.381 278.06C997.961 286.34 1000.75 296.51 1000.75 308.57V392ZM922.181 396.32C911.741 396.32 902.561 394.43 894.641 390.65C886.721 386.87 880.511 381.65 876.011 374.99C871.691 368.33 869.531 360.59 869.531 351.77C869.531 342.41 872.231 334.49 877.631 328.01C883.031 321.35 890.681 316.22 900.581 312.62C910.661 309.02 922.271 307.22 935.411 307.22H970.241V330.44H938.111C928.391 330.44 920.561 332.15 914.621 335.57C908.681 338.99 905.711 343.94 905.711 350.42C905.711 356.36 907.961 361.04 912.461 364.46C917.141 367.88 923.171 369.59 930.551 369.59C937.571 369.59 943.961 368.15 949.721 365.27C955.481 362.21 960.161 358.07 963.761 352.85C967.361 347.63 969.431 341.69 969.971 335.03L980.231 339.89C980.231 351.05 977.801 360.86 972.941 369.32C968.081 377.78 961.241 384.44 952.421 389.3C943.781 393.98 933.701 396.32 922.181 396.32ZM1020.79 371.75L1040.23 349.61C1046.35 355.73 1053.64 360.59 1062.1 364.19C1070.74 367.79 1079.56 369.59 1088.56 369.59C1096.84 369.59 1103.41 368.06 1108.27 365C1113.31 361.94 1115.83 358.16 1115.83 353.66C1115.83 348.98 1113.58 345.56 1109.08 343.4C1104.76 341.06 1096.66 339.08 1084.78 337.46C1064.98 334.58 1050.49 329.99 1041.31 323.69C1032.13 317.21 1027.54 308.3 1027.54 296.96C1027.54 287.96 1030.06 280.13 1035.1 273.47C1040.14 266.63 1047.16 261.32 1056.16 257.54C1065.16 253.76 1075.33 251.87 1086.67 251.87C1100.17 251.87 1112.05 254.03 1122.31 258.35C1132.75 262.67 1141.66 268.34 1149.04 275.36L1129.6 297.5C1124.02 291.74 1117.54 287.15 1110.16 283.73C1102.96 280.31 1095.22 278.6 1086.94 278.6C1079.2 278.6 1072.99 280.04 1068.31 282.92C1063.81 285.8 1061.56 289.4 1061.56 293.72C1061.56 297.5 1063.81 300.38 1068.31 302.36C1072.81 304.34 1080.73 306.05 1092.07 307.49C1111.51 310.37 1126.09 315.14 1135.81 321.8C1145.53 328.46 1150.39 338.09 1150.39 350.69C1150.39 359.87 1147.69 367.97 1142.29 374.99C1136.89 381.83 1129.42 387.14 1119.88 390.92C1110.52 394.52 1099.54 396.32 1086.94 396.32C1073.44 396.32 1061.02 394.07 1049.68 389.57C1038.34 385.07 1028.71 379.13 1020.79 371.75ZM1308.61 392H1272.97V313.43C1272.97 302.81 1270.54 294.89 1265.68 289.67C1260.82 284.27 1254.25 281.57 1245.97 281.57C1240.21 281.57 1234.72 283.1 1229.5 286.16C1224.28 289.22 1220.05 293.99 1216.81 300.47C1213.57 306.95 1211.95 315.5 1211.95 326.12V392H1176.31V197.6H1211.95V298.31H1207.36C1208.98 286.25 1212.31 276.89 1217.35 270.23C1222.57 263.39 1228.6 258.62 1235.44 255.92C1242.46 253.22 1249.39 251.87 1256.23 251.87C1272.43 251.87 1285.21 256.82 1294.57 266.72C1303.93 276.62 1308.61 291.02 1308.61 309.92V392ZM1463.76 392H1431.36V364.73L1429.74 360.41V309.38C1429.74 299.84 1426.68 292.46 1420.56 287.24C1414.44 282.02 1406.07 279.41 1395.45 279.41C1387.71 279.41 1380.42 280.94 1373.58 284C1366.92 286.88 1361.07 291.02 1356.03 296.42L1337.4 274.82C1344.6 267.62 1353.33 262.04 1363.59 258.08C1373.85 253.94 1385.01 251.87 1397.07 251.87C1410.21 251.87 1421.82 254.12 1431.9 258.62C1441.98 263.12 1449.81 269.6 1455.39 278.06C1460.97 286.34 1463.76 296.51 1463.76 308.57V392ZM1385.19 396.32C1374.75 396.32 1365.57 394.43 1357.65 390.65C1349.73 386.87 1343.52 381.65 1339.02 374.99C1334.7 368.33 1332.54 360.59 1332.54 351.77C1332.54 342.41 1335.24 334.49 1340.64 328.01C1346.04 321.35 1353.69 316.22 1363.59 312.62C1373.67 309.02 1385.28 307.22 1398.42 307.22H1433.25V330.44H1401.12C1391.4 330.44 1383.57 332.15 1377.63 335.57C1371.69 338.99 1368.72 343.94 1368.72 350.42C1368.72 356.36 1370.97 361.04 1375.47 364.46C1380.15 367.88 1386.18 369.59 1393.56 369.59C1400.58 369.59 1406.97 368.15 1412.73 365.27C1418.49 362.21 1423.17 358.07 1426.77 352.85C1430.37 347.63 1432.44 341.69 1432.98 335.03L1443.24 339.89C1443.24 351.05 1440.81 360.86 1435.95 369.32C1431.09 377.78 1424.25 384.44 1415.43 389.3C1406.79 393.98 1396.71 396.32 1385.19 396.32Z" fill="black"/>
<defs>
<clipPath id="clip0_71_2371">
<rect width="278.83" height="304.789" fill="white"/>
</clipPath>
</defs>
</svg>
